<?xml version="1.0" encoding="UTF-8"?>
<!-- The Best Svg Icon site in the world: iconSvg.co, Visit us! https://iconsvg.co -->
<svg fill="#000000" width="800px" height="800px" version="1.1" viewBox="144 144 512 512" xmlns="http://www.w3.org/2000/svg">
 <path d="m368.51 155.96c-44.363 0-82.816 30.938-92.281 74.23-7.4805 34.211 4.7734 68.898 30.117 91.082h-32.301c-8.3477 0-16.359 3.3242-22.266 9.2266-5.9023 5.9023-9.2227 13.914-9.2227 22.262v15.746c0 8.3477 3.3203 16.359 9.2227 22.262 5.9062 5.9023 13.918 9.2266 22.266 9.2266h31.242c-2.5586 101.66-53.293 143.91-87.977 161.48-13.445 6.6094-21.988 20.328-21.988 35.316v15.742c0 8.3477 3.3242 16.359 9.2266 22.262 5.9023 5.9062 13.914 9.2266 22.262 9.2266h125.95c2.0898 0 4.0898-0.82812 5.5664-2.3047 1.4766-1.4766 2.3047-3.4805 2.3047-5.5664 0-2.0898-0.82812-4.0898-2.3047-5.5664-1.4766-1.4766-3.4766-2.3047-5.5664-2.3047h-125.95c-4.1758 0-8.1758-1.6602-11.129-4.6133-2.957-2.957-4.6133-6.9531-4.6133-11.133v-15.742c0-9.0195 5.0977-17.207 13.191-21.188 38.488-19.469 94.352-68.402 97.016-175.61 0.058594-2.4922 0-5.3203 0-7.875 0.0625-4.4375-3.4336-7.9414-7.8711-7.8711h-39.359c-4.1797 0-8.1758-1.6562-11.133-4.6133-2.9531-2.9531-4.6133-6.9531-4.6133-11.129v-15.746c0-4.1797 1.6602-8.1758 4.6133-11.129 2.957-2.957 6.9531-4.6133 11.133-4.6133h58.918l-0.015625-0.0625c7.3906-0.12109 11.254-11.496 2.75-15.145-33.672-15.43-52-52.109-44.094-88.27 7.9023-36.156 39.855-61.855 76.906-61.852 37.047-0.003906 69 25.695 76.906 61.852 7.9023 36.16-10.422 72.84-44.098 88.27-8.5 3.6484-4.6367 15.023 2.7539 15.145l-0.015625 0.0625h27.43c4.3477 0 7.8711-3.5273 7.8711-7.875 0-4.3477-3.5234-7.8711-7.8711-7.8711h-0.81641c25.344-22.184 37.598-56.871 30.121-91.082-9.4648-43.293-47.922-74.23-92.281-74.23zm122.02 165.31c-34.781 0-62.977 28.195-62.977 62.977 0 18.684 7.0625 35.574 18.957 47.234h-15.02c-13.043 0-23.617 10.57-23.617 23.613v7.875c0 13.039 10.574 23.613 23.617 23.613h15.605c-0.69531 33.586-6.0273 53.305-21.848 73.926-10.859 14.148-20.949 19.066-30.105 24.246-4.5781 2.5898-9.168 5.2383-12.898 9.7617-3.7344 4.5234-5.8594 10.805-5.8594 18.02v7.8711c0 13.043 10.574 23.617 23.617 23.617h188.93c13.043 0 23.617-10.574 23.617-23.617v-7.8711c0-7.2148-2.125-13.496-5.8594-18.02-3.7305-4.5234-8.3203-7.1719-12.898-9.7617-9.1602-5.1797-19.246-10.098-30.105-24.246-15.82-20.621-21.152-40.34-21.848-73.926h15.605c13.043 0 23.617-10.574 23.617-23.613v-7.875c0-13.043-10.574-23.613-23.617-23.613h-15.02c11.895-11.66 18.957-28.551 18.957-47.234 0-34.781-28.195-62.977-62.977-62.977zm0 15.746h7.8711c26.086 0 47.234 21.145 47.234 47.23 0 22.176-14.914 42.129-35.426 47.234-4.0078 0.85938-7.8711 3.5234-7.8711 7.8711s3.5234 7.8711 7.8711 7.8711h47.23c4.3477 0 7.875 3.5234 7.875 7.8711v7.875c0 4.3438-3.5273 7.8711-7.875 7.8711h-23.613c-4.3477 0-7.875 3.5234-7.875 7.8711 0 40.094 6.0508 66.371 25.246 91.391 12.762 16.625 26.289 23.512 34.84 28.352 4.2773 2.418 7.0703 4.332 8.5039 6.0703 1.4336 1.7422 2.2617 3.418 2.2617 8.0117v7.8711c0 4.3477-3.5273 7.875-7.875 7.875h-188.93c-4.3477 0-7.875-3.5273-7.875-7.875v-7.8711c0-4.5938 0.82812-6.2695 2.2617-8.0117 1.4336-1.7383 4.2266-3.6523 8.5039-6.0703 8.5508-4.8398 22.078-11.727 34.84-28.352 19.195-25.02 25.246-51.297 25.246-91.391 0-4.3477-3.5273-7.8711-7.875-7.8711h-23.613c-4.3477 0-7.875-3.5273-7.875-7.8711v-7.875c0-4.3477 3.5273-7.8711 7.875-7.8711h47.23c4.3477 0 7.8711-3.5234 7.8711-7.8711s-2.6641-6.8906-7.8711-7.8711c-20.512-5.1055-35.426-25.059-35.426-47.234 0-26.086 21.148-47.23 47.234-47.23z" fill-rule="evenodd"/>
</svg>